# xmcd
#
# Track frame offsets:
# 150
# 3927
# 31701
# 61203
# 81134
# 99739
# 113061
# 125091
# 168051
# 179771
# 206576
# 213319
# 223289
#
# Disc length: 2992 seconds
#
#
# Revision: 0
# Processed by: cddbd v1.5.2PL0 Copyright (c) Steve Scherf et al.
# Submitted via: FreeRIP 2.951 
#
DISCID=b30bae0d
DTITLE=Daniel Eggers - Mein letzter Gruß, gilt dem Führer
DYEAR=2007
DGENRE=Ballad
TTITLE0=Intro
TTITLE1=Regimegegner
TTITLE2=Bomber über Dresden
TTITLE3=Wahrheit heisst nicht, was man gelesen
TTITLE4=Deutschlands Holocaust
TTITLE5=DDR, SED, BRD
TTITLE6=Odin
TTITLE7=Ein Sohn Schottlands
TTITLE8=Sie preisen
TTITLE9=Professor Faurisson
TTITLE10=Freiheit (instrumental)
TTITLE11=Der letzte Deutsche
TTITLE12=Outro
EXTD=
EXTT0=
EXTT1=
EXTT2=
EXTT3=
EXTT4=
EXTT5=
EXTT6=
EXTT7=
EXTT8=
EXTT9=
EXTT10=
EXTT11=
EXTT12=
PLAYORDER=
